<mxfile host="app.diagrams.net" agent="Mozilla/5.0 (Macintosh; Intel Mac OS X 10_15_7) AppleWebKit/537.36 (KHTML, like Gecko) Chrome/131.0.0.0 Safari/537.36" version="25.0.3">
  <diagram name="Page-1" id="_brMOxW13gOM7L24kv3p">
    <mxGraphModel dx="1286" dy="711" grid="1" gridSize="10" guides="1" tooltips="1" connect="1" arrows="1" fold="1" page="1" pageScale="1" pageWidth="850" pageHeight="1100" math="0" shadow="0">
      <root>
        <mxCell id="0" />
        <mxCell id="1" parent="0" />
        <mxCell id="yujFBTIjHt6aEmmd4it8-1" value="" style="rounded=0;whiteSpace=wrap;html=1;fillColor=#d5e8d4;strokeColor=#82b366;" vertex="1" parent="1">
          <mxGeometry x="513" y="130" width="205" height="270" as="geometry" />
        </mxCell>
        <mxCell id="yujFBTIjHt6aEmmd4it8-2" value="&lt;b&gt;Object&lt;/b&gt;" style="text;html=1;align=center;verticalAlign=middle;whiteSpace=wrap;rounded=0;" vertex="1" parent="1">
          <mxGeometry x="585.5" y="140" width="60" height="30" as="geometry" />
        </mxCell>
        <mxCell id="yujFBTIjHt6aEmmd4it8-3" value="Hashcode | Age | Bias | 01" style="rounded=0;whiteSpace=wrap;html=1;fillColor=#fff2cc;strokeColor=#d6b656;" vertex="1" parent="1">
          <mxGeometry x="520.5" y="170" width="190" height="30" as="geometry" />
        </mxCell>
        <mxCell id="yujFBTIjHt6aEmmd4it8-5" value="Klass Word" style="rounded=0;whiteSpace=wrap;html=1;fillColor=#fff2cc;strokeColor=#d6b656;" vertex="1" parent="1">
          <mxGeometry x="520.5" y="210" width="190" height="30" as="geometry" />
        </mxCell>
        <mxCell id="yujFBTIjHt6aEmmd4it8-6" value="Object body" style="rounded=0;whiteSpace=wrap;html=1;fillColor=#fff2cc;strokeColor=#d6b656;" vertex="1" parent="1">
          <mxGeometry x="520.5" y="250" width="187.5" height="120" as="geometry" />
        </mxCell>
        <mxCell id="yujFBTIjHt6aEmmd4it8-7" value="" style="rounded=0;whiteSpace=wrap;html=1;fillColor=#d5e8d4;strokeColor=#82b366;" vertex="1" parent="1">
          <mxGeometry x="133" y="130" width="205" height="270" as="geometry" />
        </mxCell>
        <mxCell id="yujFBTIjHt6aEmmd4it8-8" value="&lt;b&gt;Thread-0&lt;/b&gt;" style="text;html=1;align=center;verticalAlign=middle;whiteSpace=wrap;rounded=0;" vertex="1" parent="1">
          <mxGeometry x="200" y="140" width="60" height="30" as="geometry" />
        </mxCell>
        <mxCell id="yujFBTIjHt6aEmmd4it8-9" value="" style="rounded=0;whiteSpace=wrap;html=1;" vertex="1" parent="1">
          <mxGeometry x="135.5" y="240" width="200" height="130" as="geometry" />
        </mxCell>
        <mxCell id="yujFBTIjHt6aEmmd4it8-10" value="&lt;b&gt;Lock Record&lt;/b&gt;" style="text;html=1;align=center;verticalAlign=middle;whiteSpace=wrap;rounded=0;" vertex="1" parent="1">
          <mxGeometry x="185" y="240" width="90" height="30" as="geometry" />
        </mxCell>
        <mxCell id="yujFBTIjHt6aEmmd4it8-12" value="LockRecordAdress | 00" style="rounded=0;whiteSpace=wrap;html=1;fillColor=#fff2cc;strokeColor=#d6b656;" vertex="1" parent="1">
          <mxGeometry x="140.5" y="270" width="190" height="30" as="geometry" />
        </mxCell>
        <mxCell id="yujFBTIjHt6aEmmd4it8-13" value="ObjectReference" style="rounded=0;whiteSpace=wrap;html=1;fillColor=#fff2cc;strokeColor=#d6b656;" vertex="1" parent="1">
          <mxGeometry x="140.5" y="310" width="190" height="30" as="geometry" />
        </mxCell>
        <mxCell id="yujFBTIjHt6aEmmd4it8-14" value="&lt;b&gt;&lt;font style=&quot;font-size: 24px;&quot;&gt;Step1: Initialization LockRecord In the stack frame of the thread&lt;/font&gt;&lt;/b&gt;" style="text;html=1;align=center;verticalAlign=middle;whiteSpace=wrap;rounded=0;" vertex="1" parent="1">
          <mxGeometry x="20" y="20" width="790" height="60" as="geometry" />
        </mxCell>
        <mxCell id="yujFBTIjHt6aEmmd4it8-15" value="&lt;b&gt;&lt;font style=&quot;font-size: 24px;&quot;&gt;Step2: CAS the LockRecord in Thread with Object&#39;s mark words&lt;/font&gt;&lt;/b&gt;" style="text;html=1;align=center;verticalAlign=middle;whiteSpace=wrap;rounded=0;" vertex="1" parent="1">
          <mxGeometry x="20" y="440" width="790" height="60" as="geometry" />
        </mxCell>
        <mxCell id="yujFBTIjHt6aEmmd4it8-16" value="" style="rounded=0;whiteSpace=wrap;html=1;fillColor=#d5e8d4;strokeColor=#82b366;" vertex="1" parent="1">
          <mxGeometry x="513" y="540" width="205" height="270" as="geometry" />
        </mxCell>
        <mxCell id="yujFBTIjHt6aEmmd4it8-17" value="&lt;b&gt;Object&lt;/b&gt;" style="text;html=1;align=center;verticalAlign=middle;whiteSpace=wrap;rounded=0;" vertex="1" parent="1">
          <mxGeometry x="585.5" y="550" width="60" height="30" as="geometry" />
        </mxCell>
        <mxCell id="yujFBTIjHt6aEmmd4it8-19" value="Klass Word" style="rounded=0;whiteSpace=wrap;html=1;fillColor=#fff2cc;strokeColor=#d6b656;" vertex="1" parent="1">
          <mxGeometry x="520.5" y="620" width="190" height="30" as="geometry" />
        </mxCell>
        <mxCell id="yujFBTIjHt6aEmmd4it8-20" value="Object body" style="rounded=0;whiteSpace=wrap;html=1;fillColor=#fff2cc;strokeColor=#d6b656;" vertex="1" parent="1">
          <mxGeometry x="520.5" y="660" width="187.5" height="120" as="geometry" />
        </mxCell>
        <mxCell id="yujFBTIjHt6aEmmd4it8-21" value="" style="rounded=0;whiteSpace=wrap;html=1;fillColor=#d5e8d4;strokeColor=#82b366;" vertex="1" parent="1">
          <mxGeometry x="133" y="540" width="205" height="270" as="geometry" />
        </mxCell>
        <mxCell id="yujFBTIjHt6aEmmd4it8-22" value="&lt;b&gt;Thread-0&lt;/b&gt;" style="text;html=1;align=center;verticalAlign=middle;whiteSpace=wrap;rounded=0;" vertex="1" parent="1">
          <mxGeometry x="200" y="550" width="60" height="30" as="geometry" />
        </mxCell>
        <mxCell id="yujFBTIjHt6aEmmd4it8-23" value="" style="rounded=0;whiteSpace=wrap;html=1;" vertex="1" parent="1">
          <mxGeometry x="135.5" y="650" width="200" height="130" as="geometry" />
        </mxCell>
        <mxCell id="yujFBTIjHt6aEmmd4it8-24" value="&lt;b&gt;Lock Record&lt;/b&gt;" style="text;html=1;align=center;verticalAlign=middle;whiteSpace=wrap;rounded=0;" vertex="1" parent="1">
          <mxGeometry x="185" y="650" width="90" height="30" as="geometry" />
        </mxCell>
        <mxCell id="yujFBTIjHt6aEmmd4it8-31" style="edgeStyle=orthogonalEdgeStyle;rounded=0;orthogonalLoop=1;jettySize=auto;html=1;exitX=0;exitY=0.5;exitDx=0;exitDy=0;entryX=1;entryY=0.5;entryDx=0;entryDy=0;" edge="1" parent="1" source="yujFBTIjHt6aEmmd4it8-25" target="yujFBTIjHt6aEmmd4it8-23">
          <mxGeometry relative="1" as="geometry" />
        </mxCell>
        <mxCell id="yujFBTIjHt6aEmmd4it8-25" value="LockRecordAdress | 00" style="rounded=0;whiteSpace=wrap;html=1;fillColor=#fff2cc;strokeColor=#d6b656;" vertex="1" parent="1">
          <mxGeometry x="520.5" y="580" width="190" height="30" as="geometry" />
        </mxCell>
        <mxCell id="yujFBTIjHt6aEmmd4it8-30" style="edgeStyle=orthogonalEdgeStyle;rounded=0;orthogonalLoop=1;jettySize=auto;html=1;exitX=0;exitY=0.5;exitDx=0;exitDy=0;entryX=0.5;entryY=0;entryDx=0;entryDy=0;" edge="1" parent="1" source="yujFBTIjHt6aEmmd4it8-26" target="yujFBTIjHt6aEmmd4it8-16">
          <mxGeometry relative="1" as="geometry" />
        </mxCell>
        <mxCell id="yujFBTIjHt6aEmmd4it8-26" value="ObjectReference" style="rounded=0;whiteSpace=wrap;html=1;fillColor=#fff2cc;strokeColor=#d6b656;" vertex="1" parent="1">
          <mxGeometry x="140.5" y="720" width="190" height="30" as="geometry" />
        </mxCell>
        <mxCell id="yujFBTIjHt6aEmmd4it8-27" value="Hashcode | Age | Bias | 01" style="rounded=0;whiteSpace=wrap;html=1;fillColor=#fff2cc;strokeColor=#d6b656;" vertex="1" parent="1">
          <mxGeometry x="140.5" y="680" width="190" height="30" as="geometry" />
        </mxCell>
      </root>
    </mxGraphModel>
  </diagram>
</mxfile>
